# xmcd
#
# Track frame offsets: 
#        150
#        14729
#        35304
#        50165
#        61450
#        78227
#        91310
#        106446
#        124620
#        141143
#        156954
#        176459
#        194631
#
# Disc length: 2810 seconds
#
# Revision: 0
# Processed by: cddbd v1.5.2PL0 Copyright (c) Steve Scherf et al.
# Submitted via: ExactAudioCopyFreeDBPlugin 1.0
#
DISCID=b30af80d
DTITLE=The Bob Corbett Band - Roovolution
DYEAR=2015
DGENRE=Country
TTITLE0=Dance With Me
TTITLE1=Your Hands
TTITLE2=Only Girl
TTITLE3=Kakadu
TTITLE4=The Galway Girl
TTITLE5=Songwriter In A Cover Town
TTITLE6=The Kid In Us
TTITLE7=Slide
TTITLE8=Happy New Year
TTITLE9=All My Ex-Girlfriends Live On Islands
TTITLE10=Wherever You Run
TTITLE11=Cover Band
TTITLE12=Lift Me Up
EXTD=
EXTT0=
EXTT1=
EXTT2=
EXTT3=
EXTT4=
EXTT5=
EXTT6=
EXTT7=
EXTT8=
EXTT9=
EXTT10=
EXTT11=
EXTT12=
PLAYORDER=
